<svg xmlns="http://www.w3.org/2000/svg" viewBox="0 0 441 216"><defs><style>.cls-1{font-size:89.2px;fill:#0e1e41;font-family:SofiaPro-Bold, Sofia Pro;font-weight:700;}.cls-2{fill:#26a7df;}.cls-3{fill:#1b75ba;}</style></defs><g id="Guides"><text class="cls-1" transform="translate(200.73 137.05)">basa</text><polygon class="cls-2" points="39.78 73.95 39.78 141.85 101.72 173.09 101.72 155.37 101.72 79.33 80.34 97.3 80.34 144.68 75.22 142.15 75.22 101.06 62.01 111.68 62.01 135.63 56.69 133 56.69 82.81 104.63 57.71 104.63 40 39.78 73.95"/><polygon class="cls-3" points="104.63 40 104.63 57.71 152.56 82.81 152.56 133 147.24 135.63 147.24 111.68 134.04 101.06 134.04 142.15 128.91 144.68 128.91 97.3 107.53 79.33 107.53 155.37 107.53 173.09 169.48 141.85 169.48 73.95 104.63 40"/></g></svg>